<svg width="35" height="36" viewBox="0 0 35 36" fill="none" xmlns="http://www.w3.org/2000/svg">
<g id="Branding">
<path id="Union" fill-rule="evenodd" clip-rule="evenodd" d="M11.4543 3.3073L11.2174 3.22589L11.2173 3.22588C10.9803 3.14448 10.7434 3.06309 10.5854 3.14449L8.6895 2.5747L10.5064 1.7607C10.9804 1.51649 11.4543 1.35368 11.9283 1.19088L12.1653 1.10948L12.4023 1.19088L13.1132 1.4351C15.4041 2.0863 17.774 1.9235 20.1438 1.0281C20.2623 0.987396 20.3808 0.926341 20.4993 0.865285C20.6178 0.80423 20.7363 0.743175 20.8548 0.702474L21.0918 0.621094H21.3288C21.8817 0.702494 22.3557 0.865295 22.8297 1.0281L24.4886 1.59788L22.0397 2.81889C20.0649 3.6329 18.09 4.1213 16.0361 4.1213C14.0612 4.1213 12.4813 3.7143 11.4543 3.3073ZM5.95392 8.28789L5.95393 8.28789L5.954 8.28787C6.05183 8.25533 6.14781 8.2234 6.24075 8.19148C8.37363 7.62168 10.6645 7.70308 12.9554 8.59848C14.4563 9.16828 15.9572 9.41249 17.6161 9.41249C20.9339 9.41249 24.2517 8.19148 27.3325 5.83087L28.5174 4.85405L28.9124 4.52846L28.2015 3.95864C27.9645 3.71444 27.6485 3.47025 27.3325 3.30745L26.8585 2.98185L26.4636 3.30745C26.3846 3.34815 26.3253 3.4092 26.2661 3.47025C26.2068 3.5313 26.1476 3.59235 26.0686 3.63305C21.8818 6.88907 17.6951 7.78448 13.7453 6.23787C10.9015 5.17967 8.05763 4.93546 5.2138 5.83087C4.97681 5.91227 4.73982 5.99366 4.42384 6.07506L4.26587 6.15647L4.02886 6.40066C4.02886 6.45097 3.99869 6.47019 3.95699 6.49675C3.93123 6.51316 3.90106 6.53238 3.87089 6.56347C3.7129 6.80767 3.53515 7.03152 3.35741 7.25538C3.17967 7.47923 3.00192 7.70309 2.84393 7.94729L1.34303 10.3079L3.79189 9.00548C4.10478 9.00548 4.36809 8.90332 4.58184 8.82039C4.63791 8.79864 4.69057 8.77821 4.73982 8.76129C5.12082 8.56499 5.55289 8.42128 5.95392 8.28789ZM7.97854 13.4824C5.76667 14.1336 3.7128 15.3546 1.89591 17.3082C1.73395 17.4195 1.60888 17.5687 1.4955 17.7041C1.44297 17.7667 1.39295 17.8264 1.34293 17.878L0 19.3432L0.0790003 17.3082C0.119907 17.0553 0.139633 16.7805 0.160115 16.4953C0.179186 16.2297 0.198912 15.9549 0.237001 15.6802V15.436L0.394977 15.2732L0.789954 14.8662L2.44886 13.4824C4.02877 12.4242 5.60869 11.6102 7.26759 11.1218C9.87444 10.3892 12.7183 10.552 15.4831 11.6102C21.3288 13.8894 26.4635 10.5519 29.7813 7.29592L30.0973 6.97033L30.6502 6.40051L31.1242 7.05173C31.2135 7.17434 31.2915 7.29694 31.3668 7.4152C31.4914 7.611 31.6084 7.79489 31.7562 7.94714L32.0722 8.43553L31.6772 8.76115L30.6502 9.81934C27.9644 12.18 21.8027 16.5756 14.6932 13.8894C12.4023 12.994 10.1114 12.9126 7.97854 13.4824ZM9.55835 18.7735C11.6912 18.2037 13.9821 18.2851 16.273 19.1805C18.8008 20.1573 25.2784 21.5411 32.546 14.7848L33.731 13.5638L33.81 13.4824L34.1259 13.1568L33.9679 12.7498C33.8889 12.4243 33.731 12.0173 33.573 11.6104L33.573 11.6102L33.178 10.4706L32.388 11.2846C32.337 11.3897 32.2531 11.4609 32.1574 11.542C32.105 11.5865 32.049 11.6339 31.993 11.6916C28.5172 15.3546 23.1456 19.0991 16.9839 16.8199C14.2191 15.7617 11.3752 15.5988 8.76839 16.3314C6.24054 17.0641 4.02866 18.4479 1.97478 20.4015V20.3201L0.789851 21.6225C0.789851 21.6728 0.75968 21.692 0.717981 21.7186C0.692214 21.735 0.662045 21.7542 0.631875 21.7853L0.394874 22.0295L0.473875 22.3551C0.513372 22.5586 0.572617 22.7621 0.631862 22.9656C0.691108 23.1691 0.750354 23.3726 0.789851 23.5761L1.26383 24.8785L2.05378 23.8203C2.09328 23.7389 2.15253 23.6779 2.21177 23.6168C2.27102 23.5558 2.33026 23.4947 2.36976 23.4133L2.50705 23.2852C4.15446 21.7477 6.40796 19.6444 9.55835 18.7735ZM20.3807 27.5646C17.6159 26.5064 14.7721 26.3436 12.1652 27.0762C10.3483 27.5646 8.61041 28.5414 7.0305 29.7625L5.92455 30.7393L5.60857 31.0649L6.31953 31.7161C6.36835 31.7161 6.387 31.7472 6.41278 31.7901C6.4287 31.8167 6.44735 31.8478 6.47753 31.8789C6.59318 31.998 6.70883 32.0736 6.85547 32.1694L6.85549 32.1694L6.85594 32.1697C6.9095 32.2047 6.96718 32.2424 7.0305 32.2859L7.50446 32.6115L7.97844 32.2045C8.05743 32.1231 8.21542 31.9603 8.37341 31.8789C9.79533 30.6579 11.3752 29.8439 13.0341 29.4369C15.167 28.8671 17.4579 28.9485 19.7487 29.8439C21.6446 30.5765 25.5154 31.4719 30.1762 29.4369L30.3342 29.3554L30.5711 29.1113C30.5711 29.0609 30.6013 29.0417 30.643 29.0152C30.6688 28.9988 30.699 28.9795 30.7291 28.9484C31.1241 28.46 31.5191 27.9716 31.8351 27.4018L33.415 24.8784L30.8871 26.3436C27.1743 28.46 23.7775 28.867 20.3807 27.5646ZM22.6712 33.0999C22.5527 33.0592 22.4539 33.0185 22.3552 32.9778C22.2564 32.9371 22.1577 32.8964 22.0392 32.8557C19.2744 31.7974 16.4305 31.6347 13.8237 32.3673L13.8235 32.3673C13.2706 32.5301 12.7177 32.6929 12.1648 32.9371L10.2689 33.8325L9.79492 34.0767L11.3748 34.6465L12.7967 35.1349L13.0337 35.2163L13.2707 35.1349C13.3497 35.1077 13.4287 35.0716 13.5077 35.0354C13.6657 34.963 13.8237 34.8907 13.9817 34.8907C14.1397 34.8907 14.2977 34.8093 14.4556 34.7279C16.3515 34.2395 18.4054 34.2395 20.6173 34.9721C20.7358 35.0128 20.8345 35.0535 20.9333 35.0942C21.032 35.1349 21.1308 35.1756 21.2493 35.2163L21.6442 35.3791L21.8812 35.2977C21.9653 35.2729 22.0513 35.2481 22.1382 35.2231C22.6228 35.0835 23.1383 34.9349 23.5401 34.7279L25.752 33.9139L23.4611 33.3441C23.3426 33.3034 23.2044 33.2627 23.0662 33.222C22.9279 33.1813 22.7897 33.1406 22.6712 33.0999ZM33.573 17.471L34.758 16.25L34.679 18.1223C34.679 18.3665 34.6592 18.631 34.6395 18.8956C34.6197 19.1601 34.6 19.4247 34.6 19.6689V19.913L34.363 20.1573C34.284 20.2387 34.205 20.2997 34.126 20.3608C34.047 20.4218 33.968 20.4829 33.889 20.5643C31.2032 22.9249 27.5694 25.0413 23.9356 25.4483C21.8817 25.6925 19.8278 25.4483 17.853 24.7157C15.5621 23.8203 13.2712 23.7389 11.1383 24.3087C8.76848 24.9599 6.7146 26.2623 4.81871 28.3787L4.50273 28.7043L3.94976 29.4369L3.4758 28.7043C3.31781 28.3787 3.15981 28.1345 2.92283 27.8089L2.60685 27.3205L2.92283 26.9135L3.94976 25.7739C5.92464 23.8203 8.13653 22.5179 10.5854 21.7853C13.1922 21.0527 16.0361 21.2154 18.8009 22.2737C24.6466 24.5529 29.8603 21.1341 33.0991 17.9594L33.573 17.471Z" fill="white"/>
</g>
</svg>
